# xmcd
# 
# Track frame offsets:
#     150
#     18787
#     35944
#     54628
#     75985
#     96169
#     116588
#     127422
#     143585
#     162316
# 
# Disc length: 2380
# 
# Revision: 0
# Processed by: cddbd v1.5.2PL0 Copyright (c) Steve Scherf et al.
# Submitted via: fre:ac v1.0.31
# 
DISCID=83094a0a
DTITLE=Yves Lambert Trio - Tentation
DYEAR=2018
DGENRE=Trad
TTITLE0=La poule à Jean-Paul
TTITLE1=Ignominie
TTITLE2=Suite du Cap Breton et La déboulade
TTITLE3=Les diables
TTITLE4=Cousinage et penchant pour Ti-Jean
TTITLE5=La coquette à Poupa et sa suite
TTITLE6=Le Lac Rond
TTITLE7=Adultère et le reel du cocu
TTITLE8=Vent d'Irlande
TTITLE9=VIP pour l'enfer
EXTD=
EXTT0=
EXTT1=
EXTT2=
EXTT3=
EXTT4=
EXTT5=
EXTT6=
EXTT7=
EXTT8=
EXTT9=
PLAYORDER=
